<?xml version="1.0" standalone="no"?><!DOCTYPE svg PUBLIC "-//W3C//DTD SVG 1.1//EN" "http://www.w3.org/Graphics/SVG/1.1/DTD/svg11.dtd"><svg t="1630260953546" class="icon" viewBox="0 0 1757 1024" version="1.1" xmlns="http://www.w3.org/2000/svg" p-id="9304" xmlns:xlink="http://www.w3.org/1999/xlink" width="343.1640625" height="200"><defs><style type="text/css"></style></defs><path d="M206.351515 801.357576h-45.769697l70.59394-135.757576h50.424242l66.715152 135.757576h-50.424243l-10.084848-24.824243H217.212121l-10.860606 24.824243z m69.818182-54.303031l-21.721212-49.648484-23.272727 49.648484h44.993939zM355.29697 801.357576V665.6h43.442424v135.757576h-43.442424zM425.115152 693.527273v-27.927273h43.442424v27.927273h-43.442424z m0 107.830303V706.715152h43.442424v94.642424h-43.442424zM493.381818 665.6h43.442424v54.30303c5.430303-5.430303 10.860606-9.309091 17.066667-12.412121 6.206061-2.327273 13.187879-3.878788 20.945455-3.878788 14.739394 0 27.151515 4.654545 35.684848 13.963637 9.309091 9.309091 13.187879 21.721212 13.187879 38.012121 0 13.963636-4.654545 25.6-13.187879 34.133333-8.533333 8.533333-20.945455 13.187879-35.684848 13.187879-7.757576 0-15.515152-1.551515-22.49697-4.654546-6.981818-3.10303-12.412121-6.981818-17.066667-13.187878v8.533333c0 2.327273-0.775758 4.654545-1.551515 6.981818h-43.442424c0.775758-1.551515 0.775758-3.878788 0.775757-6.981818 0-2.327273 0.775758-5.430303 0.775758-9.309091V665.6z m87.660606 88.436364c0-8.533333-2.327273-14.739394-6.20606-19.39394-3.878788-4.654545-9.309091-6.981818-16.290909-6.981818-6.981818 0-12.412121 2.327273-16.29091 6.981818-3.878788 4.654545-5.430303 11.636364-5.430303 20.169697s1.551515 14.739394 5.430303 19.39394c3.878788 4.654545 9.309091 6.981818 16.29091 6.981818 6.981818 0 12.412121-2.327273 16.290909-6.981818 4.654545-5.430303 6.206061-11.636364 6.20606-20.169697zM721.454545 787.393939c-3.878788 5.430303-9.309091 9.309091-16.290909 12.412122-6.981818 2.327273-14.739394 3.878788-24.048484 3.878787-13.187879 0-24.048485-2.327273-31.030304-6.981818-6.981818-4.654545-10.860606-11.636364-10.860606-20.169697 0-11.636364 6.206061-20.945455 18.618182-25.6 12.412121-5.430303 33.357576-7.757576 62.836364-8.533333v-0.775758-0.775757c0-4.654545-1.551515-8.533333-4.654546-10.860606-3.10303-2.327273-6.981818-3.878788-13.187878-3.878788-5.430303 0-9.309091 0.775758-12.412122 2.327273-3.10303 1.551515-4.654545 4.654545-4.654545 7.757575h-40.339394c0-10.084848 5.430303-18.618182 14.739394-23.272727 10.084848-5.430303 24.824242-7.757576 44.993939-7.757576 19.393939 0 33.357576 3.10303 42.666667 9.309091 9.309091 6.206061 13.963636 14.739394 13.963636 27.151515v48.09697c0 3.10303 0 5.430303 0.775758 6.981818 0 1.551515 0.775758 3.878788 1.551515 5.430303h-40.339394c-0.775758-2.327273-1.551515-4.654545-1.551515-6.981818 0-3.10303-0.775758-5.430303-0.775758-7.757576z m-0.775757-27.151515c-13.963636 0-24.048485 0.775758-28.70303 3.103031-5.430303 1.551515-7.757576 5.430303-7.757576 9.30909 0 3.10303 1.551515 5.430303 3.878788 6.981819 2.327273 1.551515 6.206061 2.327273 10.860606 2.327272 7.757576 0 13.187879-1.551515 17.066666-5.430303 3.878788-3.10303 5.430303-8.533333 5.430303-15.515151V760.242424zM787.393939 665.6h43.442425v54.30303c5.430303-5.430303 10.860606-9.309091 17.066666-12.412121 6.206061-2.327273 13.187879-3.878788 20.945455-3.878788 14.739394 0 27.151515 4.654545 35.684848 13.963637 9.309091 9.309091 13.187879 21.721212 13.187879 38.012121 0 13.963636-4.654545 25.6-13.187879 34.133333-8.533333 8.533333-20.945455 13.187879-35.684848 13.187879-7.757576 0-15.515152-1.551515-22.49697-4.654546-6.981818-3.10303-12.412121-6.981818-17.066667-13.187878v8.533333c0 2.327273-0.775758 4.654545-1.551515 6.981818h-43.442424c0.775758-1.551515 0.775758-3.878788 0.775758-6.981818 0-2.327273 0.775758-5.430303 0.775757-9.309091V665.6z m87.660606 88.436364c0-8.533333-2.327273-14.739394-6.20606-19.39394-3.878788-4.654545-9.309091-6.981818-16.290909-6.981818-6.981818 0-12.412121 2.327273-16.290909 6.981818-3.878788 4.654545-5.430303 11.636364-5.430303 20.169697s1.551515 14.739394 5.430303 19.39394c3.878788 4.654545 9.309091 6.981818 16.290909 6.981818 6.981818 0 12.412121-2.327273 16.290909-6.981818 3.878788-5.430303 6.206061-11.636364 6.20606-20.169697zM1015.466667 787.393939c-3.878788 5.430303-9.309091 9.309091-16.290909 12.412122-6.981818 2.327273-14.739394 3.878788-24.048485 3.878787-13.187879 0-24.048485-2.327273-31.030303-6.981818-6.981818-4.654545-10.860606-11.636364-10.860606-20.169697 0-11.636364 6.206061-20.945455 18.618181-25.6 12.412121-5.430303 33.357576-7.757576 62.836364-8.533333v-0.775758-0.775757c0-4.654545-1.551515-8.533333-4.654545-10.860606-3.10303-2.327273-6.981818-3.878788-13.187879-3.878788-5.430303 0-9.309091 0.775758-12.412121 2.327273-3.10303 1.551515-4.654545 4.654545-5.430303 7.757575H938.666667c0-10.084848 5.430303-18.618182 14.739394-23.272727 10.084848-5.430303 24.824242-7.757576 44.218181-7.757576s33.357576 3.10303 42.666667 9.309091c9.309091 6.206061 13.963636 14.739394 13.963636 27.151515v48.09697c0 3.10303 0 5.430303 0.775758 6.981818 0 1.551515 0.775758 3.878788 1.551515 5.430303H1016.242424c-0.775758-2.327273-1.551515-4.654545-1.551515-6.981818 0.775758-3.10303 0.775758-5.430303 0.775758-7.757576z m-0.775758-27.151515c-13.963636 0-24.048485 0.775758-28.70303 3.103031-5.430303 1.551515-7.757576 5.430303-7.757576 9.30909 0 3.10303 1.551515 5.430303 3.878788 6.981819 2.327273 1.551515 6.206061 2.327273 10.860606 2.327272 7.757576 0 13.187879-1.551515 17.066667-5.430303 3.878788-3.10303 5.430303-8.533333 5.430303-15.515151V760.242424zM1191.563636 748.606061v-15.515152h57.406061v49.648485c-8.533333 6.981818-17.842424 12.412121-27.151515 15.515151-9.309091 3.878788-18.618182 5.430303-28.70303 5.430303-13.187879 0-25.6-3.10303-35.684849-8.533333-10.860606-5.430303-18.618182-13.963636-24.824242-24.824242-5.430303-10.860606-8.533333-22.49697-8.533334-35.684849 0-13.187879 3.10303-25.6 8.533334-36.460606 5.430303-11.636364 13.187879-20.169697 23.272727-25.6 10.084848-5.430303 22.49697-8.533333 35.684848-8.533333 10.084848 0 18.618182 1.551515 26.375758 4.654545 7.757576 3.10303 13.963636 7.757576 18.618182 13.187879 4.654545 5.430303 7.757576 13.187879 10.084848 21.721212l-16.290909 4.654546c-2.327273-6.981818-4.654545-12.412121-7.757576-16.290909s-6.981818-6.981818-13.187878-9.309091c-5.430303-2.327273-11.636364-3.878788-18.618182-3.878788-7.757576 0-15.515152 1.551515-20.945455 3.878788-6.206061 2.327273-10.860606 5.430303-13.963636 10.084848-3.878788 3.878788-6.206061 8.533333-8.533333 13.187879-3.10303 8.533333-5.430303 17.066667-5.430303 27.151515 0 12.412121 2.327273 22.49697 6.20606 30.254546s10.084848 13.963636 17.842424 17.842424c7.757576 3.878788 16.290909 6.206061 24.824243 6.20606 7.757576 0 15.515152-1.551515 22.496969-4.654545 6.981818-3.10303 13.187879-6.206061 17.066667-9.309091v-24.824242h-38.787879zM1273.018182 801.357576V703.612121h14.739394v14.739394c3.878788-6.981818 6.981818-11.636364 10.860606-13.963636 3.10303-2.327273 6.981818-3.10303 10.860606-3.103031 5.430303 0 11.636364 1.551515 17.066667 5.430304l-5.430303 15.515151c-3.878788-2.327273-7.757576-3.878788-12.412122-3.878788-3.878788 0-6.981818 0.775758-10.084848 3.10303-3.10303 2.327273-4.654545 5.430303-6.206061 9.309091-1.551515 6.206061-3.10303 12.412121-3.10303 19.39394v51.2h-16.290909zM1332.751515 752.484848c0-17.842424 4.654545-31.806061 14.739394-40.339393 8.533333-6.981818 18.618182-10.860606 31.030303-10.860607 13.187879 0 24.048485 4.654545 32.581818 13.187879s12.412121 20.945455 12.412122 36.460606c0 12.412121-1.551515 22.49697-5.430304 29.478788-3.878788 6.981818-9.309091 12.412121-16.290909 17.066667-6.981818 3.878788-14.739394 6.206061-23.272727 6.20606-13.963636 0-24.824242-4.654545-33.357576-13.187878-8.533333-9.309091-12.412121-21.721212-12.412121-38.012122z m17.066667 0c0 12.412121 3.10303 21.721212 8.533333 27.927273 5.430303 6.206061 12.412121 9.309091 20.945455 9.309091s14.739394-3.10303 20.169697-9.309091c5.430303-6.206061 8.533333-15.515152 8.533333-28.70303 0-12.412121-3.10303-20.945455-8.533333-27.151515-5.430303-6.206061-12.412121-9.309091-20.169697-9.309091-8.533333 0-14.739394 3.10303-20.945455 9.309091-6.206061 6.206061-8.533333 15.515152-8.533333 27.927272zM1510.4 801.357576v-14.739394c-7.757576 10.860606-17.842424 16.290909-31.030303 16.290909-5.430303 0-10.860606-0.775758-16.290909-3.10303-4.654545-2.327273-8.533333-4.654545-10.860606-8.533334-2.327273-3.10303-3.878788-7.757576-5.430303-12.412121-0.775758-3.10303-0.775758-8.533333-0.775758-15.515151v-60.509091h16.290909v54.30303c0 8.533333 0 14.739394 0.775758 17.066667 0.775758 4.654545 3.10303 7.757576 6.981818 10.084848 3.10303 2.327273 7.757576 3.878788 12.412121 3.878788 4.654545 0 9.309091-1.551515 13.963637-3.878788 4.654545-2.327273 7.757576-6.206061 9.309091-10.084848 1.551515-4.654545 2.327273-10.860606 2.327272-19.39394v-51.975757h16.290909v97.745454h-13.963636zM1553.842424 838.593939V703.612121h14.739394v12.412121c3.878788-4.654545 7.757576-8.533333 12.412121-10.860606 4.654545-2.327273 10.084848-3.878788 16.290909-3.878788 8.533333 0 15.515152 2.327273 21.721213 6.206061 6.206061 4.654545 10.860606 10.084848 14.739394 17.842424 3.10303 7.757576 4.654545 16.290909 4.654545 25.6 0 10.084848-1.551515 18.618182-5.430303 27.151515-3.878788 7.757576-8.533333 13.963636-15.515152 18.618182-6.981818 3.878788-13.963636 6.206061-21.721212 6.206061-5.430303 0-10.084848-0.775758-14.739394-3.10303-4.654545-2.327273-7.757576-5.430303-10.860606-8.533334v47.321212h-16.290909z m14.739394-86.109091c0 12.412121 2.327273 21.721212 7.757576 27.927273 5.430303 6.206061 10.860606 9.309091 18.618182 9.309091 6.981818 0 13.963636-3.10303 18.618182-9.309091 5.430303-6.206061 7.757576-15.515152 7.757575-28.70303 0-12.412121-2.327273-21.721212-7.757575-27.927273-5.430303-6.206061-10.860606-9.309091-18.618182-9.309091-6.981818 0-13.187879 3.10303-18.618182 10.084849-4.654545 6.206061-7.757576 15.515152-7.757576 27.927272z" fill="#F37021" p-id="9305"></path><path d="M598.884848 558.545455c-3.10303 0-8.533333-3.10303-11.636363-6.206061-33.357576-32.581818 9.309091-70.593939 59.733333-92.315152v-62.836363c11.636364 7.757576 17.842424 7.757576 18.618182 8.533333l38.012121-38.012121-13.187879-31.806061c111.709091-38.787879 156.70303-53.527273 247.466667-68.266666l-16.290909-15.515152 26.375758-15.515151c61.284848 20.169697 118.690909 25.6 108.60606 76.8 2.327273-34.909091-40.339394-48.09697-106.278788-66.715152l-12.412121 7.757576 24.048485 20.169697c-108.606061 18.618182-175.321212 39.563636-255.224242 67.490909l10.860606 27.927273-39.563637 39.563636c6.981818 1.551515 76.024242 24.824242 148.945455-25.6 0 0 1.551515-0.775758 1.551515-1.551515-2.327273-3.878788-6.981818-7.757576-13.187879-12.412121 20.945455 1.551515 34.909091 20.169697 32.581818 39.563636H837.818182c0.775758-6.206061-0.775758-13.187879-3.10303-17.842424-55.854545 41.115152-121.018182 47.321212-176.872728 27.927272v48.09697c-27.151515 9.309091-75.248485 39.563636-74.472727 67.490909 2.327273 14.739394 9.309091 19.393939 15.515151 23.272728z" fill="" p-id="9306"></path><path d="M826.181818 546.133333c-59.733333 30.254545-117.915152 55.078788-206.351515 58.181819-115.587879-2.327273-133.430303-79.127273-79.127273-159.030304 51.975758-80.678788 133.430303-154.375758 263.757576-199.369696 38.012121-13.187879 93.090909-28.70303 146.618182-29.478788 76.8-0.775758 152.048485 23.272727 146.618182 96.969697-3.10303 56.630303-84.557576 136.533333-127.224243 193.939394-18.618182 24.824242-21.721212 41.115152 10.084849 39.563636 114.036364-7.757576 217.987879-47.321212 314.181818-87.660606-65.163636 44.218182-401.066667 210.230303-402.618182 96.969697 0-14.739394 6.981818-29.478788 17.842424-45.769697 10.860606-16.290909 25.6-33.357576 40.339394-50.424243 23.272727-26.375758 79.90303-88.436364 99.29697-126.448484 31.806061-71.369697-39.563636-74.472727-102.4-96.19394l-26.375758 15.515152 16.29091 15.515151c-90.763636 15.515152-135.757576 30.254545-247.466667 68.266667l12.412121 32.581818-38.012121 38.012121c-0.775758-0.775758-6.981818-1.551515-18.618182-8.533333v62.836364c-49.648485 21.721212-93.090909 59.733333-59.733333 92.315151 3.878788 3.10303 8.533333 5.430303 11.636363 6.206061 62.836364 33.357576 228.848485-13.963636 228.848485-13.963637z" fill="#F37021" p-id="9307"></path><path d="M1222.593939 568.630303h6.981819c1.551515 0 2.327273 0 3.878787-0.775758 0.775758 0 1.551515-0.775758 2.327273-1.551515 0.775758-0.775758 0.775758-1.551515 0.775758-2.327272 0-1.551515-0.775758-2.327273-1.551515-3.103031-0.775758-0.775758-2.327273-0.775758-3.878788-0.775757h-7.757576v8.533333z m-3.878787 14.739394V558.545455h10.860606c2.327273 0 3.878788 0 4.654545 0.775757 1.551515 0.775758 2.327273 1.551515 3.10303 2.327273 0.775758 0.775758 0.775758 2.327273 0.775758 3.878788s-0.775758 3.10303-1.551515 4.654545c-0.775758 1.551515-3.10303 1.551515-5.430303 2.327273 0.775758 0.775758 1.551515 0.775758 2.327272 1.551515 0.775758 0.775758 1.551515 2.327273 2.327273 3.10303l4.654546 6.981819h-3.878788l-3.103031-5.430303c-0.775758-1.551515-1.551515-2.327273-2.327272-3.878788l-1.551515-1.551516c-0.775758 0-0.775758-0.775758-1.551516-0.775757h-5.430303v10.860606h-3.878787" fill="#F37021" p-id="9308"></path><path d="M1229.575758 592.678788c12.412121 0 22.49697-10.084848 22.496969-22.49697 0-12.412121-10.084848-22.49697-22.496969-22.49697-12.412121 0-22.49697 10.084848-22.49697 22.49697 0 12.412121 10.084848 22.49697 22.49697 22.49697z m-19.39394-22.49697c0-10.084848 8.533333-18.618182 18.618182-18.618182 10.084848 0 18.618182 8.533333 18.618182 18.618182 0 10.084848-8.533333 18.618182-18.618182 18.618182-10.084848 0.775758-18.618182-7.757576-18.618182-18.618182" fill="#F37021" p-id="9309"></path></svg>